<?xml version="1.0" encoding="UTF-8" standalone="no"?>
<!DOCTYPE svg PUBLIC "-//W3C//DTD SVG 1.1//EN" "http://www.w3.org/Graphics/SVG/1.1/DTD/svg11.dtd">
<svg width="100%" height="100%" viewBox="0 0 500 500" version="1.1" xmlns="http://www.w3.org/2000/svg" xmlns:xlink="http://www.w3.org/1999/xlink" xml:space="preserve" xmlns:serif="http://www.serif.com/" style="fill-rule:evenodd;clip-rule:evenodd;">
    <g>
        <g>
            <g>
                <path d="M268.869,246.442L235.31,246.442L235.31,244.171L240.539,244.171C246.274,244.171 250.425,243.494 252.997,242.13C255.565,240.77 256.852,238.354 256.852,234.88C256.852,233.671 256.695,232.203 256.393,230.463C256.086,228.729 255.56,226.874 254.81,224.9L240.977,187.734L179.56,187.734L167.102,223.317C165.737,227.249 165.06,230.499 165.06,233.067C165.06,237.15 166.872,240.025 170.497,241.692C174.122,243.348 179.935,244.171 187.935,244.171L193.164,244.171L193.164,246.442L137.852,246.442L137.852,244.171L144.435,244.171C149.268,244.171 153.081,242.89 155.872,240.317C158.664,237.749 161.19,233.145 163.456,226.505L212.872,84.609L224.435,84.609L268.869,199.85L268.869,246.442ZM180.247,185.463L240.081,185.463L223.539,141.275C217.633,126.015 212.945,112.411 209.477,100.463C207.961,105.005 206.633,109.015 205.497,112.484C204.372,115.958 203.164,119.624 201.872,123.484C200.591,127.333 198.977,131.979 197.018,137.421L180.247,185.463Z" style="fill:white;"/>
            </g>
        </g>
    </g>
    <g transform="matrix(1,0,0,1,215.608,347.199)">
        <g>
            <g>
                <path d="M8.604,0L8.604,-2.271L11.563,-2.271C23.948,-2.271 30.146,-7.708 30.146,-18.583L30.146,-144.167C30.146,-154.443 23.948,-159.583 11.563,-159.583L8.604,-159.583L8.604,-161.833L122.854,-161.833L124.208,-122.167L121.938,-122.167L121.5,-129.646C120.885,-140.979 118.24,-148.797 113.563,-153.104C108.88,-157.422 100.797,-159.583 89.313,-159.583L53.042,-159.583L53.042,-80.687L109.938,-80.687L109.938,-78.417L53.042,-78.417L53.042,-18.583C53.042,-7.708 59.234,-2.271 71.625,-2.271L74.583,-2.271L74.583,0L8.604,0Z" style="fill:white;fill-rule:nonzero;"/>
            </g>
        </g>
    </g>
    <g transform="matrix(0.75,1.13e-15,-1.13e-15,0.75,250,266.873)">
        <path d="M0,2.669L100.625,2.669" style="fill:none;fill-rule:nonzero;stroke:white;stroke-width:5.33px;"/>
    </g>
</svg>
