<?xml version="1.0" encoding="UTF-8" standalone="no"?>
<!DOCTYPE svg PUBLIC "-//W3C//DTD SVG 1.1//EN" "http://www.w3.org/Graphics/SVG/1.1/DTD/svg11.dtd">
<svg width="100%" height="100%" viewBox="0 0 500 500" version="1.1" xmlns="http://www.w3.org/2000/svg" xmlns:xlink="http://www.w3.org/1999/xlink" xml:space="preserve" xmlns:serif="http://www.serif.com/" style="fill-rule:evenodd;clip-rule:evenodd;">
    <g>
        <g>
            <g>
                <path d="M268.896,246.442L235.31,246.442L235.31,244.171L240.539,244.171C246.274,244.171 250.425,243.494 252.997,242.13C255.565,240.77 256.852,238.353 256.852,234.88C256.852,233.671 256.695,232.202 256.393,230.463C256.086,228.728 255.56,226.874 254.81,224.9L240.977,187.734L179.56,187.734L167.102,223.317C165.737,227.249 165.06,230.499 165.06,233.067C165.06,237.15 166.872,240.025 170.497,241.692C174.122,243.348 179.935,244.171 187.935,244.171L193.164,244.171L193.164,246.442L137.852,246.442L137.852,244.171L144.435,244.171C149.268,244.171 153.081,242.89 155.872,240.317C158.664,237.749 161.19,233.145 163.456,226.505L212.872,84.609L224.435,84.609L268.896,199.922L268.896,246.442ZM180.247,185.463L240.081,185.463L223.539,141.275C217.633,126.015 212.945,112.411 209.477,100.463C207.961,105.005 206.633,109.015 205.497,112.484C204.372,115.958 203.164,119.624 201.872,123.484C200.591,127.333 198.977,131.978 197.018,137.421L180.247,185.463Z" style="fill:white;"/>
            </g>
        </g>
    </g>
    <g transform="matrix(1,0,0,1,215.608,347.199)">
        <g>
            <g>
                <path d="M8.604,0L8.604,-2.271L11.563,-2.271C23.948,-2.271 30.146,-7.708 30.146,-18.583L30.146,-144.167C30.146,-154.443 23.948,-159.583 11.563,-159.583L8.604,-159.583L8.604,-161.833L122.854,-161.833L124.208,-122.167L121.938,-122.167L121.5,-129.646C120.885,-140.979 118.24,-148.797 113.563,-153.104C108.88,-157.422 100.797,-159.583 89.313,-159.583L53.042,-159.583L53.042,-80.687L109.938,-80.687L109.938,-78.417L53.042,-78.417L53.042,-18.583C53.042,-7.708 59.234,-2.271 71.625,-2.271L74.583,-2.271L74.583,0L8.604,0Z" style="fill:white;fill-rule:nonzero;"/>
            </g>
        </g>
    </g>
    <g transform="matrix(0.75,1.13e-15,-1.13e-15,0.75,250,266.873)">
        <path d="M0,2.669L100.625,2.669" style="fill:none;fill-rule:nonzero;stroke:white;stroke-width:5.33px;"/>
    </g>
    <g transform="matrix(1,0,0,1,65.2016,407.391)">
        <g>
            <g>
                <path d="M14.708,-4.979L4.333,-4.979L2.104,0L0.063,0L8.563,-18.625L10.5,-18.625L19.021,0L16.938,0L14.708,-4.979ZM14,-6.562L9.521,-16.583L5.063,-6.562L14,-6.562Z" style="fill:white;fill-rule:nonzero;"/>
            </g>
        </g>
    </g>
    <g transform="matrix(1,0,0,1,92.3706,407.391)">
        <g>
            <g>
                <path d="M3.042,-18.625L10.625,-18.625C12.583,-18.625 14.313,-18.229 15.813,-17.437C17.323,-16.646 18.5,-15.542 19.333,-14.125C20.167,-12.719 20.583,-11.115 20.583,-9.312C20.583,-7.505 20.167,-5.896 19.333,-4.479C18.5,-3.073 17.323,-1.979 15.813,-1.187C14.313,-0.396 12.583,0 10.625,0L3.042,0L3.042,-18.625ZM10.5,-1.708C12.135,-1.708 13.568,-2.026 14.792,-2.667C16.01,-3.318 16.958,-4.214 17.625,-5.354C18.302,-6.505 18.646,-7.823 18.646,-9.312C18.646,-10.797 18.302,-12.109 17.625,-13.25C16.958,-14.401 16.01,-15.297 14.792,-15.937C13.568,-16.589 12.135,-16.917 10.5,-16.917L5,-16.917L5,-1.708L10.5,-1.708Z" style="fill:white;fill-rule:nonzero;"/>
            </g>
        </g>
    </g>
    <g transform="matrix(1,0,0,1,122.44,407.391)">
        <g>
            <g>
                <path d="M14.708,-4.979L4.333,-4.979L2.104,0L0.063,0L8.563,-18.625L10.5,-18.625L19.021,0L16.938,0L14.708,-4.979ZM14,-6.562L9.521,-16.583L5.063,-6.562L14,-6.562Z" style="fill:white;fill-rule:nonzero;"/>
            </g>
        </g>
    </g>
    <g transform="matrix(1,0,0,1,149.609,407.391)">
        <g>
            <g>
                <path d="M3.042,-18.625L5,-18.625L5,-1.708L15.438,-1.708L15.438,0L3.042,0L3.042,-18.625Z" style="fill:white;fill-rule:nonzero;"/>
            </g>
        </g>
    </g>
    <g transform="matrix(1,0,0,1,173.372,407.391)">
        <g>
            <g>
                <path d="M16.208,-1.708L16.208,0L3.042,0L3.042,-18.625L15.813,-18.625L15.813,-16.917L5,-16.917L5,-10.292L14.625,-10.292L14.625,-8.625L5,-8.625L5,-1.708L16.208,-1.708Z" style="fill:white;fill-rule:nonzero;"/>
            </g>
        </g>
    </g>
    <g transform="matrix(1,0,0,1,199.264,407.391)">
        <g>
            <g>
                <path d="M6.646,-16.917L0.104,-16.917L0.104,-18.625L15.167,-18.625L15.167,-16.917L8.625,-16.917L8.625,0L6.646,0L6.646,-16.917Z" style="fill:white;fill-rule:nonzero;"/>
            </g>
        </g>
    </g>
    <g transform="matrix(1,0,0,1,222.628,407.391)">
        <g>
            <g>
                <path d="M16.208,-1.708L16.208,0L3.042,0L3.042,-18.625L15.813,-18.625L15.813,-16.917L5,-16.917L5,-10.292L14.625,-10.292L14.625,-8.625L5,-8.625L5,-1.708L16.208,-1.708Z" style="fill:white;fill-rule:nonzero;"/>
            </g>
        </g>
    </g>
    <g transform="matrix(1,0,0,1,263.581,407.391)">
        <g>
            <g>
                <path d="M5,-16.917L5,-9.604L14.625,-9.604L14.625,-7.896L5,-7.896L5,0L3.042,0L3.042,-18.625L15.813,-18.625L15.813,-16.917L5,-16.917Z" style="fill:white;fill-rule:nonzero;"/>
            </g>
        </g>
    </g>
    <g transform="matrix(1,0,0,1,288.515,407.391)">
        <g>
            <g>
                <rect x="3.042" y="-18.625" width="1.958" height="18.625" style="fill:white;fill-rule:nonzero;"/>
            </g>
        </g>
    </g>
    <g transform="matrix(1,0,0,1,304.641,407.391)">
        <g>
            <g>
                <path d="M6.646,-16.917L0.104,-16.917L0.104,-18.625L15.167,-18.625L15.167,-16.917L8.625,-16.917L8.625,0L6.646,0L6.646,-16.917Z" style="fill:white;fill-rule:nonzero;"/>
            </g>
        </g>
    </g>
    <g transform="matrix(1,0,0,1,328.005,407.391)">
        <g>
            <g>
                <path d="M18.604,-18.625L18.604,0L16.979,0L5,-15.104L5,0L3.042,0L3.042,-18.625L4.646,-18.625L16.646,-3.521L16.646,-18.625L18.604,-18.625Z" style="fill:white;fill-rule:nonzero;"/>
            </g>
        </g>
    </g>
    <g transform="matrix(1,0,0,1,357.729,407.391)">
        <g>
            <g>
                <path d="M16.208,-1.708L16.208,0L3.042,0L3.042,-18.625L15.813,-18.625L15.813,-16.917L5,-16.917L5,-10.292L14.625,-10.292L14.625,-8.625L5,-8.625L5,-1.708L16.208,-1.708Z" style="fill:white;fill-rule:nonzero;"/>
            </g>
        </g>
    </g>
    <g transform="matrix(1,0,0,1,383.62,407.391)">
        <g>
            <g>
                <path d="M8.167,0.167C6.776,0.167 5.448,-0.052 4.188,-0.5C2.922,-0.943 1.943,-1.531 1.25,-2.271L2.021,-3.771C2.698,-3.104 3.594,-2.562 4.708,-2.146C5.818,-1.729 6.969,-1.521 8.167,-1.521C9.833,-1.521 11.083,-1.823 11.917,-2.437C12.75,-3.047 13.167,-3.839 13.167,-4.812C13.167,-5.562 12.938,-6.156 12.479,-6.604C12.031,-7.047 11.479,-7.385 10.813,-7.625C10.156,-7.859 9.25,-8.125 8.083,-8.417C6.677,-8.76 5.563,-9.094 4.729,-9.417C3.896,-9.75 3.177,-10.25 2.583,-10.917C2,-11.594 1.708,-12.51 1.708,-13.667C1.708,-14.609 1.948,-15.464 2.438,-16.229C2.938,-17.005 3.698,-17.625 4.729,-18.083C5.755,-18.552 7.031,-18.792 8.563,-18.792C9.63,-18.792 10.672,-18.635 11.688,-18.333C12.714,-18.042 13.594,-17.635 14.333,-17.125L13.667,-15.562C12.885,-16.073 12.052,-16.458 11.167,-16.708C10.276,-16.969 9.406,-17.104 8.563,-17.104C6.938,-17.104 5.708,-16.781 4.875,-16.146C4.052,-15.521 3.646,-14.714 3.646,-13.729C3.646,-12.979 3.865,-12.375 4.313,-11.917C4.771,-11.469 5.339,-11.13 6.021,-10.896C6.698,-10.656 7.615,-10.396 8.771,-10.104C10.146,-9.771 11.25,-9.437 12.083,-9.104C12.927,-8.781 13.646,-8.292 14.229,-7.625C14.813,-6.958 15.104,-6.052 15.104,-4.917C15.104,-3.984 14.854,-3.13 14.354,-2.354C13.854,-1.573 13.073,-0.958 12.021,-0.5C10.979,-0.052 9.693,0.167 8.167,0.167Z" style="fill:white;fill-rule:nonzero;"/>
            </g>
        </g>
    </g>
    <g transform="matrix(1,0,0,1,408.075,407.391)">
        <g>
            <g>
                <path d="M8.167,0.167C6.776,0.167 5.448,-0.052 4.188,-0.5C2.922,-0.943 1.943,-1.531 1.25,-2.271L2.021,-3.771C2.698,-3.104 3.594,-2.562 4.708,-2.146C5.818,-1.729 6.969,-1.521 8.167,-1.521C9.833,-1.521 11.083,-1.823 11.917,-2.437C12.75,-3.047 13.167,-3.839 13.167,-4.812C13.167,-5.562 12.938,-6.156 12.479,-6.604C12.031,-7.047 11.479,-7.385 10.813,-7.625C10.156,-7.859 9.25,-8.125 8.083,-8.417C6.677,-8.76 5.563,-9.094 4.729,-9.417C3.896,-9.75 3.177,-10.25 2.583,-10.917C2,-11.594 1.708,-12.51 1.708,-13.667C1.708,-14.609 1.948,-15.464 2.438,-16.229C2.938,-17.005 3.698,-17.625 4.729,-18.083C5.755,-18.552 7.031,-18.792 8.563,-18.792C9.63,-18.792 10.672,-18.635 11.688,-18.333C12.714,-18.042 13.594,-17.635 14.333,-17.125L13.667,-15.562C12.885,-16.073 12.052,-16.458 11.167,-16.708C10.276,-16.969 9.406,-17.104 8.563,-17.104C6.938,-17.104 5.708,-16.781 4.875,-16.146C4.052,-15.521 3.646,-14.714 3.646,-13.729C3.646,-12.979 3.865,-12.375 4.313,-11.917C4.771,-11.469 5.339,-11.13 6.021,-10.896C6.698,-10.656 7.615,-10.396 8.771,-10.104C10.146,-9.771 11.25,-9.437 12.083,-9.104C12.927,-8.781 13.646,-8.292 14.229,-7.625C14.813,-6.958 15.104,-6.052 15.104,-4.917C15.104,-3.984 14.854,-3.13 14.354,-2.354C13.854,-1.573 13.073,-0.958 12.021,-0.5C10.979,-0.052 9.693,0.167 8.167,0.167Z" style="fill:white;fill-rule:nonzero;"/>
            </g>
        </g>
    </g>
    <g transform="matrix(1,0,0,1,152.389,429.391)">
        <g>
            <g>
                <path d="M5.583,0.083C4.651,0.083 3.813,-0.115 3.063,-0.521C2.323,-0.937 1.74,-1.505 1.313,-2.229C0.896,-2.948 0.688,-3.755 0.688,-4.646C0.688,-5.531 0.896,-6.333 1.313,-7.042C1.74,-7.76 2.323,-8.333 3.063,-8.75C3.813,-9.167 4.651,-9.375 5.583,-9.375C6.5,-9.375 7.323,-9.167 8.063,-8.75C8.797,-8.344 9.375,-7.781 9.792,-7.062C10.219,-6.339 10.438,-5.531 10.438,-4.646C10.438,-3.755 10.219,-2.948 9.792,-2.229C9.375,-1.505 8.797,-0.937 8.063,-0.521C7.323,-0.115 6.5,0.083 5.583,0.083ZM5.583,-0.792C6.302,-0.792 6.964,-0.958 7.563,-1.292C8.156,-1.625 8.625,-2.083 8.958,-2.667C9.292,-3.26 9.458,-3.922 9.458,-4.646C9.458,-5.365 9.292,-6.021 8.958,-6.604C8.625,-7.198 8.156,-7.667 7.563,-8C6.964,-8.333 6.302,-8.5 5.583,-8.5C4.844,-8.5 4.177,-8.333 3.583,-8C2.984,-7.667 2.51,-7.198 2.167,-6.604C1.833,-6.021 1.667,-5.365 1.667,-4.646C1.667,-3.922 1.833,-3.26 2.167,-2.667C2.51,-2.083 2.984,-1.625 3.583,-1.292C4.177,-0.958 4.844,-0.792 5.583,-0.792Z" style="fill:white;fill-rule:nonzero;"/>
            </g>
        </g>
    </g>
    <g transform="matrix(1,0,0,1,167.556,429.391)">
        <g>
            <g>
                <path d="M9.271,-9.292L9.271,0L8.458,0L2.5,-7.542L2.5,0L1.521,0L1.521,-9.292L2.313,-9.292L8.313,-1.75L8.313,-9.292L9.271,-9.292Z" style="fill:white;fill-rule:nonzero;"/>
            </g>
        </g>
    </g>
    <g transform="matrix(1,0,0,1,182.377,429.391)">
        <g>
            <g>
                <path d="M1.521,-9.292L2.5,-9.292L2.5,-0.854L7.688,-0.854L7.688,0L1.521,0L1.521,-9.292Z" style="fill:white;fill-rule:nonzero;"/>
            </g>
        </g>
    </g>
    <g transform="matrix(1,0,0,1,194.228,429.391)">
        <g>
            <g>
                <rect x="1.521" y="-9.292" width="0.979" height="9.292" style="fill:white;fill-rule:nonzero;"/>
            </g>
        </g>
    </g>
    <g transform="matrix(1,0,0,1,202.271,429.391)">
        <g>
            <g>
                <path d="M9.271,-9.292L9.271,0L8.458,0L2.5,-7.542L2.5,0L1.521,0L1.521,-9.292L2.313,-9.292L8.313,-1.75L8.313,-9.292L9.271,-9.292Z" style="fill:white;fill-rule:nonzero;"/>
            </g>
        </g>
    </g>
    <g transform="matrix(1,0,0,1,217.093,429.391)">
        <g>
            <g>
                <path d="M8.083,-0.854L8.083,0L1.521,0L1.521,-9.292L7.875,-9.292L7.875,-8.437L2.5,-8.437L2.5,-5.146L7.292,-5.146L7.292,-4.292L2.5,-4.292L2.5,-0.854L8.083,-0.854Z" style="fill:white;fill-rule:nonzero;"/>
            </g>
        </g>
    </g>
    <g transform="matrix(1,0,0,1,237.516,429.391)">
        <g>
            <g>
                <path d="M5.542,0.083C4.625,0.083 3.797,-0.115 3.063,-0.521C2.323,-0.937 1.74,-1.505 1.313,-2.229C0.896,-2.948 0.688,-3.755 0.688,-4.646C0.688,-5.531 0.896,-6.339 1.313,-7.062C1.74,-7.781 2.323,-8.344 3.063,-8.75C3.813,-9.167 4.646,-9.375 5.563,-9.375C6.255,-9.375 6.896,-9.255 7.479,-9.021C8.063,-8.797 8.552,-8.464 8.958,-8.021L8.333,-7.396C7.609,-8.13 6.693,-8.5 5.583,-8.5C4.844,-8.5 4.177,-8.323 3.583,-7.979C2.984,-7.646 2.51,-7.187 2.167,-6.604C1.833,-6.021 1.667,-5.365 1.667,-4.646C1.667,-3.922 1.833,-3.271 2.167,-2.687C2.51,-2.104 2.984,-1.635 3.583,-1.292C4.177,-0.958 4.844,-0.792 5.583,-0.792C6.693,-0.792 7.609,-1.167 8.333,-1.917L8.958,-1.292C8.552,-0.844 8.052,-0.505 7.458,-0.271C6.875,-0.031 6.234,0.083 5.542,0.083Z" style="fill:white;fill-rule:nonzero;"/>
            </g>
        </g>
    </g>
    <g transform="matrix(1,0,0,1,251.091,429.391)">
        <g>
            <g>
                <path d="M5.583,0.083C4.651,0.083 3.813,-0.115 3.063,-0.521C2.323,-0.937 1.74,-1.505 1.313,-2.229C0.896,-2.948 0.688,-3.755 0.688,-4.646C0.688,-5.531 0.896,-6.333 1.313,-7.042C1.74,-7.76 2.323,-8.333 3.063,-8.75C3.813,-9.167 4.651,-9.375 5.583,-9.375C6.5,-9.375 7.323,-9.167 8.063,-8.75C8.797,-8.344 9.375,-7.781 9.792,-7.062C10.219,-6.339 10.438,-5.531 10.438,-4.646C10.438,-3.755 10.219,-2.948 9.792,-2.229C9.375,-1.505 8.797,-0.937 8.063,-0.521C7.323,-0.115 6.5,0.083 5.583,0.083ZM5.583,-0.792C6.302,-0.792 6.964,-0.958 7.563,-1.292C8.156,-1.625 8.625,-2.083 8.958,-2.667C9.292,-3.26 9.458,-3.922 9.458,-4.646C9.458,-5.365 9.292,-6.021 8.958,-6.604C8.625,-7.198 8.156,-7.667 7.563,-8C6.964,-8.333 6.302,-8.5 5.583,-8.5C4.844,-8.5 4.177,-8.333 3.583,-8C2.984,-7.667 2.51,-7.198 2.167,-6.604C1.833,-6.021 1.667,-5.365 1.667,-4.646C1.667,-3.922 1.833,-3.26 2.167,-2.667C2.51,-2.083 2.984,-1.625 3.583,-1.292C4.177,-0.958 4.844,-0.792 5.583,-0.792Z" style="fill:white;fill-rule:nonzero;"/>
            </g>
        </g>
    </g>
    <g transform="matrix(1,0,0,1,266.258,429.391)">
        <g>
            <g>
                <path d="M7.333,-2.479L2.167,-2.479L1.042,0L0.021,0L4.271,-9.292L5.25,-9.292L9.479,0L8.458,0L7.333,-2.479ZM6.979,-3.271L4.75,-8.271L2.521,-3.271L6.979,-3.271Z" style="fill:white;fill-rule:nonzero;"/>
            </g>
        </g>
    </g>
    <g transform="matrix(1,0,0,1,279.806,429.391)">
        <g>
            <g>
                <path d="M5.542,0.083C4.625,0.083 3.797,-0.115 3.063,-0.521C2.323,-0.937 1.74,-1.505 1.313,-2.229C0.896,-2.948 0.688,-3.755 0.688,-4.646C0.688,-5.531 0.896,-6.339 1.313,-7.062C1.74,-7.781 2.323,-8.344 3.063,-8.75C3.813,-9.167 4.646,-9.375 5.563,-9.375C6.255,-9.375 6.896,-9.255 7.479,-9.021C8.063,-8.797 8.552,-8.464 8.958,-8.021L8.333,-7.396C7.609,-8.13 6.693,-8.5 5.583,-8.5C4.844,-8.5 4.177,-8.323 3.583,-7.979C2.984,-7.646 2.51,-7.187 2.167,-6.604C1.833,-6.021 1.667,-5.365 1.667,-4.646C1.667,-3.922 1.833,-3.271 2.167,-2.687C2.51,-2.104 2.984,-1.635 3.583,-1.292C4.177,-0.958 4.844,-0.792 5.583,-0.792C6.693,-0.792 7.609,-1.167 8.333,-1.917L8.958,-1.292C8.552,-0.844 8.052,-0.505 7.458,-0.271C6.875,-0.031 6.234,0.083 5.542,0.083Z" style="fill:white;fill-rule:nonzero;"/>
            </g>
        </g>
    </g>
    <g transform="matrix(1,0,0,1,293.381,429.391)">
        <g>
            <g>
                <path d="M9.271,-9.292L9.271,0L8.313,0L8.313,-4.292L2.5,-4.292L2.5,0L1.521,0L1.521,-9.292L2.5,-9.292L2.5,-5.146L8.313,-5.146L8.313,-9.292L9.271,-9.292Z" style="fill:white;fill-rule:nonzero;"/>
            </g>
        </g>
    </g>
    <g transform="matrix(1,0,0,1,308.203,429.391)">
        <g>
            <g>
                <rect x="1.521" y="-9.292" width="0.979" height="9.292" style="fill:white;fill-rule:nonzero;"/>
            </g>
        </g>
    </g>
    <g transform="matrix(1,0,0,1,316.246,429.391)">
        <g>
            <g>
                <path d="M9.271,-9.292L9.271,0L8.458,0L2.5,-7.542L2.5,0L1.521,0L1.521,-9.292L2.313,-9.292L8.313,-1.75L8.313,-9.292L9.271,-9.292Z" style="fill:white;fill-rule:nonzero;"/>
            </g>
        </g>
    </g>
    <g transform="matrix(1,0,0,1,331.068,429.391)">
        <g>
            <g>
                <path d="M8.063,-4.646L9,-4.646L9,-1.104C8.568,-0.714 8.052,-0.417 7.458,-0.208C6.859,-0.01 6.234,0.083 5.583,0.083C4.651,0.083 3.813,-0.115 3.063,-0.521C2.323,-0.937 1.74,-1.505 1.313,-2.229C0.896,-2.948 0.688,-3.755 0.688,-4.646C0.688,-5.531 0.896,-6.339 1.313,-7.062C1.74,-7.781 2.323,-8.344 3.063,-8.75C3.813,-9.167 4.656,-9.375 5.604,-9.375C6.313,-9.375 6.958,-9.255 7.542,-9.021C8.135,-8.797 8.635,-8.464 9.042,-8.021L8.438,-7.396C7.698,-8.13 6.771,-8.5 5.646,-8.5C4.896,-8.5 4.214,-8.333 3.604,-8C2.99,-7.667 2.51,-7.198 2.167,-6.604C1.833,-6.021 1.667,-5.365 1.667,-4.646C1.667,-3.922 1.833,-3.271 2.167,-2.687C2.51,-2.104 2.984,-1.635 3.583,-1.292C4.193,-0.958 4.875,-0.792 5.625,-0.792C6.583,-0.792 7.396,-1.031 8.063,-1.521L8.063,-4.646Z" style="fill:white;fill-rule:nonzero;"/>
            </g>
        </g>
    </g>
</svg>
