<?xml version="1.0" encoding="UTF-8" standalone="no"?>
<!DOCTYPE svg PUBLIC "-//W3C//DTD SVG 1.1//EN" "http://www.w3.org/Graphics/SVG/1.1/DTD/svg11.dtd">
<svg width="100%" height="100%" viewBox="0 0 500 500" version="1.1" xmlns="http://www.w3.org/2000/svg" xmlns:xlink="http://www.w3.org/1999/xlink" xml:space="preserve" xmlns:serif="http://www.serif.com/" style="fill-rule:evenodd;clip-rule:evenodd;">
    <g>
        <g>
            <g>
                <path d="M268.508,246.642L235.31,246.642L235.31,244.371L240.539,244.371C246.274,244.371 250.425,243.694 252.997,242.33C255.565,240.97 256.852,238.554 256.852,235.08C256.852,233.871 256.695,232.403 256.393,230.663C256.086,228.929 255.56,227.074 254.81,225.1L240.977,187.934L179.56,187.934L167.102,223.517C165.737,227.449 165.06,230.699 165.06,233.267C165.06,237.35 166.872,240.225 170.497,241.892C174.122,243.548 179.935,244.371 187.935,244.371L193.164,244.371L193.164,246.642L137.852,246.642L137.852,244.371L144.435,244.371C149.268,244.371 153.081,243.09 155.872,240.517C158.664,237.949 161.19,233.345 163.456,226.705L212.872,84.809L224.435,84.809L268.508,199.114L268.508,246.642ZM180.247,185.663L240.081,185.663L223.539,141.475C217.633,126.215 212.945,112.611 209.477,100.663C207.961,105.205 206.633,109.215 205.497,112.684C204.372,116.158 203.164,119.824 201.872,123.684C200.591,127.533 198.977,132.179 197.018,137.621L180.247,185.663Z"/>
            </g>
        </g>
    </g>
    <g transform="matrix(1,0,0,1,215.353,347.482)">
        <g>
            <g>
                <path d="M8.604,0L8.604,-2.271L11.563,-2.271C23.948,-2.271 30.146,-7.708 30.146,-18.583L30.146,-144.167C30.146,-154.443 23.948,-159.583 11.563,-159.583L8.604,-159.583L8.604,-161.833L122.854,-161.833L124.208,-122.167L121.938,-122.167L121.5,-129.646C120.885,-140.979 118.24,-148.797 113.563,-153.104C108.88,-157.422 100.797,-159.583 89.313,-159.583L53.042,-159.583L53.042,-80.687L109.938,-80.687L109.938,-78.417L53.042,-78.417L53.042,-18.583C53.042,-7.708 59.234,-2.271 71.625,-2.271L74.583,-2.271L74.583,0L8.604,0Z" style="fill-rule:nonzero;"/>
            </g>
        </g>
    </g>
    <g transform="matrix(0.75,0,0,0.75,267.497,267.572)">
        <path d="M-0.002,2.667L78.109,2.667" style="fill:none;fill-rule:nonzero;stroke:black;stroke-width:5.33px;"/>
    </g>
    <g transform="matrix(1,0,0,1,70.3577,398.75)">
        <g>
            <g>
                <path d="M14.708,-4.979L4.333,-4.979L2.104,0L0.063,0L8.563,-18.625L10.5,-18.625L19.021,0L16.938,0L14.708,-4.979ZM14,-6.562L9.521,-16.583L5.063,-6.562L14,-6.562Z" style="fill:rgb(68,67,66);fill-rule:nonzero;"/>
            </g>
        </g>
    </g>
    <g transform="matrix(1,0,0,1,97.5267,398.75)">
        <g>
            <g>
                <path d="M3.042,-18.625L10.625,-18.625C12.583,-18.625 14.313,-18.229 15.813,-17.437C17.323,-16.646 18.5,-15.542 19.333,-14.125C20.167,-12.719 20.583,-11.115 20.583,-9.312C20.583,-7.505 20.167,-5.896 19.333,-4.479C18.5,-3.073 17.323,-1.979 15.813,-1.187C14.313,-0.396 12.583,0 10.625,0L3.042,0L3.042,-18.625ZM10.5,-1.708C12.135,-1.708 13.568,-2.026 14.792,-2.667C16.01,-3.318 16.958,-4.214 17.625,-5.354C18.302,-6.505 18.646,-7.823 18.646,-9.312C18.646,-10.797 18.302,-12.109 17.625,-13.25C16.958,-14.401 16.01,-15.297 14.792,-15.937C13.568,-16.589 12.135,-16.917 10.5,-16.917L5,-16.917L5,-1.708L10.5,-1.708Z" style="fill:rgb(68,67,66);fill-rule:nonzero;"/>
            </g>
        </g>
    </g>
    <g transform="matrix(1,0,0,1,127.596,398.75)">
        <g>
            <g>
                <path d="M14.708,-4.979L4.333,-4.979L2.104,0L0.063,0L8.563,-18.625L10.5,-18.625L19.021,0L16.938,0L14.708,-4.979ZM14,-6.562L9.521,-16.583L5.063,-6.562L14,-6.562Z" style="fill:rgb(68,67,66);fill-rule:nonzero;"/>
            </g>
        </g>
    </g>
    <g transform="matrix(1,0,0,1,154.765,398.75)">
        <g>
            <g>
                <path d="M3.042,-18.625L5,-18.625L5,-1.708L15.438,-1.708L15.438,0L3.042,0L3.042,-18.625Z" style="fill:rgb(68,67,66);fill-rule:nonzero;"/>
            </g>
        </g>
    </g>
    <g transform="matrix(1,0,0,1,178.528,398.75)">
        <g>
            <g>
                <path d="M16.208,-1.708L16.208,0L3.042,0L3.042,-18.625L15.813,-18.625L15.813,-16.917L5,-16.917L5,-10.292L14.625,-10.292L14.625,-8.625L5,-8.625L5,-1.708L16.208,-1.708Z" style="fill:rgb(68,67,66);fill-rule:nonzero;"/>
            </g>
        </g>
    </g>
    <g transform="matrix(1,0,0,1,204.42,398.75)">
        <g>
            <g>
                <path d="M6.646,-16.917L0.104,-16.917L0.104,-18.625L15.167,-18.625L15.167,-16.917L8.625,-16.917L8.625,0L6.646,0L6.646,-16.917Z" style="fill:rgb(68,67,66);fill-rule:nonzero;"/>
            </g>
        </g>
    </g>
    <g transform="matrix(1,0,0,1,227.784,398.75)">
        <g>
            <g>
                <path d="M16.208,-1.708L16.208,0L3.042,0L3.042,-18.625L15.813,-18.625L15.813,-16.917L5,-16.917L5,-10.292L14.625,-10.292L14.625,-8.625L5,-8.625L5,-1.708L16.208,-1.708Z" style="fill:rgb(68,67,66);fill-rule:nonzero;"/>
            </g>
        </g>
    </g>
    <g transform="matrix(1,0,0,1,268.737,398.75)">
        <g>
            <g>
                <path d="M5,-16.917L5,-9.604L14.625,-9.604L14.625,-7.896L5,-7.896L5,0L3.042,0L3.042,-18.625L15.813,-18.625L15.813,-16.917L5,-16.917Z" style="fill:rgb(68,67,66);fill-rule:nonzero;"/>
            </g>
        </g>
    </g>
    <g transform="matrix(1,0,0,1,293.671,398.75)">
        <g>
            <g>
                <rect x="3.042" y="-18.625" width="1.958" height="18.625" style="fill:rgb(68,67,66);fill-rule:nonzero;"/>
            </g>
        </g>
    </g>
    <g transform="matrix(1,0,0,1,309.797,398.75)">
        <g>
            <g>
                <path d="M6.646,-16.917L0.104,-16.917L0.104,-18.625L15.167,-18.625L15.167,-16.917L8.625,-16.917L8.625,0L6.646,0L6.646,-16.917Z" style="fill:rgb(68,67,66);fill-rule:nonzero;"/>
            </g>
        </g>
    </g>
    <g transform="matrix(1,0,0,1,333.161,398.75)">
        <g>
            <g>
                <path d="M18.604,-18.625L18.604,0L16.979,0L5,-15.104L5,0L3.042,0L3.042,-18.625L4.646,-18.625L16.646,-3.521L16.646,-18.625L18.604,-18.625Z" style="fill:rgb(68,67,66);fill-rule:nonzero;"/>
            </g>
        </g>
    </g>
    <g transform="matrix(1,0,0,1,362.885,398.75)">
        <g>
            <g>
                <path d="M16.208,-1.708L16.208,0L3.042,0L3.042,-18.625L15.813,-18.625L15.813,-16.917L5,-16.917L5,-10.292L14.625,-10.292L14.625,-8.625L5,-8.625L5,-1.708L16.208,-1.708Z" style="fill:rgb(68,67,66);fill-rule:nonzero;"/>
            </g>
        </g>
    </g>
    <g transform="matrix(1,0,0,1,388.777,398.75)">
        <g>
            <g>
                <path d="M8.167,0.167C6.776,0.167 5.448,-0.052 4.188,-0.5C2.922,-0.943 1.943,-1.531 1.25,-2.271L2.021,-3.771C2.698,-3.104 3.594,-2.562 4.708,-2.146C5.818,-1.729 6.969,-1.521 8.167,-1.521C9.833,-1.521 11.083,-1.823 11.917,-2.437C12.75,-3.047 13.167,-3.839 13.167,-4.812C13.167,-5.562 12.938,-6.156 12.479,-6.604C12.031,-7.047 11.479,-7.385 10.813,-7.625C10.156,-7.859 9.25,-8.125 8.083,-8.417C6.677,-8.76 5.563,-9.094 4.729,-9.417C3.896,-9.75 3.177,-10.25 2.583,-10.917C2,-11.594 1.708,-12.51 1.708,-13.667C1.708,-14.609 1.948,-15.464 2.438,-16.229C2.938,-17.005 3.698,-17.625 4.729,-18.083C5.755,-18.552 7.031,-18.792 8.563,-18.792C9.63,-18.792 10.672,-18.635 11.688,-18.333C12.714,-18.042 13.594,-17.635 14.333,-17.125L13.667,-15.562C12.885,-16.073 12.052,-16.458 11.167,-16.708C10.276,-16.969 9.406,-17.104 8.563,-17.104C6.938,-17.104 5.708,-16.781 4.875,-16.146C4.052,-15.521 3.646,-14.714 3.646,-13.729C3.646,-12.979 3.865,-12.375 4.313,-11.917C4.771,-11.469 5.339,-11.13 6.021,-10.896C6.698,-10.656 7.615,-10.396 8.771,-10.104C10.146,-9.771 11.25,-9.437 12.083,-9.104C12.927,-8.781 13.646,-8.292 14.229,-7.625C14.813,-6.958 15.104,-6.052 15.104,-4.917C15.104,-3.984 14.854,-3.13 14.354,-2.354C13.854,-1.573 13.073,-0.958 12.021,-0.5C10.979,-0.052 9.693,0.167 8.167,0.167Z" style="fill:rgb(68,67,66);fill-rule:nonzero;"/>
            </g>
        </g>
    </g>
    <g transform="matrix(1,0,0,1,413.231,398.75)">
        <g>
            <g>
                <path d="M8.167,0.167C6.776,0.167 5.448,-0.052 4.188,-0.5C2.922,-0.943 1.943,-1.531 1.25,-2.271L2.021,-3.771C2.698,-3.104 3.594,-2.562 4.708,-2.146C5.818,-1.729 6.969,-1.521 8.167,-1.521C9.833,-1.521 11.083,-1.823 11.917,-2.437C12.75,-3.047 13.167,-3.839 13.167,-4.812C13.167,-5.562 12.938,-6.156 12.479,-6.604C12.031,-7.047 11.479,-7.385 10.813,-7.625C10.156,-7.859 9.25,-8.125 8.083,-8.417C6.677,-8.76 5.563,-9.094 4.729,-9.417C3.896,-9.75 3.177,-10.25 2.583,-10.917C2,-11.594 1.708,-12.51 1.708,-13.667C1.708,-14.609 1.948,-15.464 2.438,-16.229C2.938,-17.005 3.698,-17.625 4.729,-18.083C5.755,-18.552 7.031,-18.792 8.563,-18.792C9.63,-18.792 10.672,-18.635 11.688,-18.333C12.714,-18.042 13.594,-17.635 14.333,-17.125L13.667,-15.562C12.885,-16.073 12.052,-16.458 11.167,-16.708C10.276,-16.969 9.406,-17.104 8.563,-17.104C6.938,-17.104 5.708,-16.781 4.875,-16.146C4.052,-15.521 3.646,-14.714 3.646,-13.729C3.646,-12.979 3.865,-12.375 4.313,-11.917C4.771,-11.469 5.339,-11.13 6.021,-10.896C6.698,-10.656 7.615,-10.396 8.771,-10.104C10.146,-9.771 11.25,-9.437 12.083,-9.104C12.927,-8.781 13.646,-8.292 14.229,-7.625C14.813,-6.958 15.104,-6.052 15.104,-4.917C15.104,-3.984 14.854,-3.13 14.354,-2.354C13.854,-1.573 13.073,-0.958 12.021,-0.5C10.979,-0.052 9.693,0.167 8.167,0.167Z" style="fill:rgb(68,67,66);fill-rule:nonzero;"/>
            </g>
        </g>
    </g>
    <g transform="matrix(1,0,0,1,157.545,420.75)">
        <g>
            <g>
                <path d="M5.583,0.083C4.651,0.083 3.813,-0.115 3.063,-0.521C2.323,-0.937 1.74,-1.505 1.313,-2.229C0.896,-2.948 0.688,-3.755 0.688,-4.646C0.688,-5.531 0.896,-6.333 1.313,-7.042C1.74,-7.76 2.323,-8.333 3.063,-8.75C3.813,-9.167 4.651,-9.375 5.583,-9.375C6.5,-9.375 7.323,-9.167 8.063,-8.75C8.797,-8.344 9.375,-7.781 9.792,-7.062C10.219,-6.339 10.438,-5.531 10.438,-4.646C10.438,-3.755 10.219,-2.948 9.792,-2.229C9.375,-1.505 8.797,-0.937 8.063,-0.521C7.323,-0.115 6.5,0.083 5.583,0.083ZM5.583,-0.792C6.302,-0.792 6.964,-0.958 7.563,-1.292C8.156,-1.625 8.625,-2.083 8.958,-2.667C9.292,-3.26 9.458,-3.922 9.458,-4.646C9.458,-5.365 9.292,-6.021 8.958,-6.604C8.625,-7.198 8.156,-7.667 7.563,-8C6.964,-8.333 6.302,-8.5 5.583,-8.5C4.844,-8.5 4.177,-8.333 3.583,-8C2.984,-7.667 2.51,-7.198 2.167,-6.604C1.833,-6.021 1.667,-5.365 1.667,-4.646C1.667,-3.922 1.833,-3.26 2.167,-2.667C2.51,-2.083 2.984,-1.625 3.583,-1.292C4.177,-0.958 4.844,-0.792 5.583,-0.792Z" style="fill:rgb(68,67,66);fill-rule:nonzero;"/>
            </g>
        </g>
    </g>
    <g transform="matrix(1,0,0,1,172.712,420.75)">
        <g>
            <g>
                <path d="M9.271,-9.292L9.271,0L8.458,0L2.5,-7.542L2.5,0L1.521,0L1.521,-9.292L2.313,-9.292L8.313,-1.75L8.313,-9.292L9.271,-9.292Z" style="fill:rgb(68,67,66);fill-rule:nonzero;"/>
            </g>
        </g>
    </g>
    <g transform="matrix(1,0,0,1,187.534,420.75)">
        <g>
            <g>
                <path d="M1.521,-9.292L2.5,-9.292L2.5,-0.854L7.688,-0.854L7.688,0L1.521,0L1.521,-9.292Z" style="fill:rgb(68,67,66);fill-rule:nonzero;"/>
            </g>
        </g>
    </g>
    <g transform="matrix(1,0,0,1,199.384,420.75)">
        <g>
            <g>
                <rect x="1.521" y="-9.292" width="0.979" height="9.292" style="fill:rgb(68,67,66);fill-rule:nonzero;"/>
            </g>
        </g>
    </g>
    <g transform="matrix(1,0,0,1,207.427,420.75)">
        <g>
            <g>
                <path d="M9.271,-9.292L9.271,0L8.458,0L2.5,-7.542L2.5,0L1.521,0L1.521,-9.292L2.313,-9.292L8.313,-1.75L8.313,-9.292L9.271,-9.292Z" style="fill:rgb(68,67,66);fill-rule:nonzero;"/>
            </g>
        </g>
    </g>
    <g transform="matrix(1,0,0,1,222.249,420.75)">
        <g>
            <g>
                <path d="M8.083,-0.854L8.083,0L1.521,0L1.521,-9.292L7.875,-9.292L7.875,-8.437L2.5,-8.437L2.5,-5.146L7.292,-5.146L7.292,-4.292L2.5,-4.292L2.5,-0.854L8.083,-0.854Z" style="fill:rgb(68,67,66);fill-rule:nonzero;"/>
            </g>
        </g>
    </g>
    <g transform="matrix(1,0,0,1,242.673,420.75)">
        <g>
            <g>
                <path d="M5.542,0.083C4.625,0.083 3.797,-0.115 3.063,-0.521C2.323,-0.937 1.74,-1.505 1.313,-2.229C0.896,-2.948 0.688,-3.755 0.688,-4.646C0.688,-5.531 0.896,-6.339 1.313,-7.062C1.74,-7.781 2.323,-8.344 3.063,-8.75C3.813,-9.167 4.646,-9.375 5.563,-9.375C6.255,-9.375 6.896,-9.255 7.479,-9.021C8.063,-8.797 8.552,-8.464 8.958,-8.021L8.333,-7.396C7.609,-8.13 6.693,-8.5 5.583,-8.5C4.844,-8.5 4.177,-8.323 3.583,-7.979C2.984,-7.646 2.51,-7.187 2.167,-6.604C1.833,-6.021 1.667,-5.365 1.667,-4.646C1.667,-3.922 1.833,-3.271 2.167,-2.687C2.51,-2.104 2.984,-1.635 3.583,-1.292C4.177,-0.958 4.844,-0.792 5.583,-0.792C6.693,-0.792 7.609,-1.167 8.333,-1.917L8.958,-1.292C8.552,-0.844 8.052,-0.505 7.458,-0.271C6.875,-0.031 6.234,0.083 5.542,0.083Z" style="fill:rgb(68,67,66);fill-rule:nonzero;"/>
            </g>
        </g>
    </g>
    <g transform="matrix(1,0,0,1,256.247,420.75)">
        <g>
            <g>
                <path d="M5.583,0.083C4.651,0.083 3.813,-0.115 3.063,-0.521C2.323,-0.937 1.74,-1.505 1.313,-2.229C0.896,-2.948 0.688,-3.755 0.688,-4.646C0.688,-5.531 0.896,-6.333 1.313,-7.042C1.74,-7.76 2.323,-8.333 3.063,-8.75C3.813,-9.167 4.651,-9.375 5.583,-9.375C6.5,-9.375 7.323,-9.167 8.063,-8.75C8.797,-8.344 9.375,-7.781 9.792,-7.062C10.219,-6.339 10.438,-5.531 10.438,-4.646C10.438,-3.755 10.219,-2.948 9.792,-2.229C9.375,-1.505 8.797,-0.937 8.063,-0.521C7.323,-0.115 6.5,0.083 5.583,0.083ZM5.583,-0.792C6.302,-0.792 6.964,-0.958 7.563,-1.292C8.156,-1.625 8.625,-2.083 8.958,-2.667C9.292,-3.26 9.458,-3.922 9.458,-4.646C9.458,-5.365 9.292,-6.021 8.958,-6.604C8.625,-7.198 8.156,-7.667 7.563,-8C6.964,-8.333 6.302,-8.5 5.583,-8.5C4.844,-8.5 4.177,-8.333 3.583,-8C2.984,-7.667 2.51,-7.198 2.167,-6.604C1.833,-6.021 1.667,-5.365 1.667,-4.646C1.667,-3.922 1.833,-3.26 2.167,-2.667C2.51,-2.083 2.984,-1.625 3.583,-1.292C4.177,-0.958 4.844,-0.792 5.583,-0.792Z" style="fill:rgb(68,67,66);fill-rule:nonzero;"/>
            </g>
        </g>
    </g>
    <g transform="matrix(1,0,0,1,271.414,420.75)">
        <g>
            <g>
                <path d="M7.333,-2.479L2.167,-2.479L1.042,0L0.021,0L4.271,-9.292L5.25,-9.292L9.479,0L8.458,0L7.333,-2.479ZM6.979,-3.271L4.75,-8.271L2.521,-3.271L6.979,-3.271Z" style="fill:rgb(68,67,66);fill-rule:nonzero;"/>
            </g>
        </g>
    </g>
    <g transform="matrix(1,0,0,1,284.962,420.75)">
        <g>
            <g>
                <path d="M5.542,0.083C4.625,0.083 3.797,-0.115 3.063,-0.521C2.323,-0.937 1.74,-1.505 1.313,-2.229C0.896,-2.948 0.688,-3.755 0.688,-4.646C0.688,-5.531 0.896,-6.339 1.313,-7.062C1.74,-7.781 2.323,-8.344 3.063,-8.75C3.813,-9.167 4.646,-9.375 5.563,-9.375C6.255,-9.375 6.896,-9.255 7.479,-9.021C8.063,-8.797 8.552,-8.464 8.958,-8.021L8.333,-7.396C7.609,-8.13 6.693,-8.5 5.583,-8.5C4.844,-8.5 4.177,-8.323 3.583,-7.979C2.984,-7.646 2.51,-7.187 2.167,-6.604C1.833,-6.021 1.667,-5.365 1.667,-4.646C1.667,-3.922 1.833,-3.271 2.167,-2.687C2.51,-2.104 2.984,-1.635 3.583,-1.292C4.177,-0.958 4.844,-0.792 5.583,-0.792C6.693,-0.792 7.609,-1.167 8.333,-1.917L8.958,-1.292C8.552,-0.844 8.052,-0.505 7.458,-0.271C6.875,-0.031 6.234,0.083 5.542,0.083Z" style="fill:rgb(68,67,66);fill-rule:nonzero;"/>
            </g>
        </g>
    </g>
    <g transform="matrix(1,0,0,1,298.537,420.75)">
        <g>
            <g>
                <path d="M9.271,-9.292L9.271,0L8.313,0L8.313,-4.292L2.5,-4.292L2.5,0L1.521,0L1.521,-9.292L2.5,-9.292L2.5,-5.146L8.313,-5.146L8.313,-9.292L9.271,-9.292Z" style="fill:rgb(68,67,66);fill-rule:nonzero;"/>
            </g>
        </g>
    </g>
    <g transform="matrix(1,0,0,1,313.359,420.75)">
        <g>
            <g>
                <rect x="1.521" y="-9.292" width="0.979" height="9.292" style="fill:rgb(68,67,66);fill-rule:nonzero;"/>
            </g>
        </g>
    </g>
    <g transform="matrix(1,0,0,1,321.402,420.75)">
        <g>
            <g>
                <path d="M9.271,-9.292L9.271,0L8.458,0L2.5,-7.542L2.5,0L1.521,0L1.521,-9.292L2.313,-9.292L8.313,-1.75L8.313,-9.292L9.271,-9.292Z" style="fill:rgb(68,67,66);fill-rule:nonzero;"/>
            </g>
        </g>
    </g>
    <g transform="matrix(1,0,0,1,336.224,420.75)">
        <g>
            <g>
                <path d="M8.063,-4.646L9,-4.646L9,-1.104C8.568,-0.714 8.052,-0.417 7.458,-0.208C6.859,-0.01 6.234,0.083 5.583,0.083C4.651,0.083 3.813,-0.115 3.063,-0.521C2.323,-0.937 1.74,-1.505 1.313,-2.229C0.896,-2.948 0.688,-3.755 0.688,-4.646C0.688,-5.531 0.896,-6.339 1.313,-7.062C1.74,-7.781 2.323,-8.344 3.063,-8.75C3.813,-9.167 4.656,-9.375 5.604,-9.375C6.313,-9.375 6.958,-9.255 7.542,-9.021C8.135,-8.797 8.635,-8.464 9.042,-8.021L8.438,-7.396C7.698,-8.13 6.771,-8.5 5.646,-8.5C4.896,-8.5 4.214,-8.333 3.604,-8C2.99,-7.667 2.51,-7.198 2.167,-6.604C1.833,-6.021 1.667,-5.365 1.667,-4.646C1.667,-3.922 1.833,-3.271 2.167,-2.687C2.51,-2.104 2.984,-1.635 3.583,-1.292C4.193,-0.958 4.875,-0.792 5.625,-0.792C6.583,-0.792 7.396,-1.031 8.063,-1.521L8.063,-4.646Z" style="fill:rgb(68,67,66);fill-rule:nonzero;"/>
            </g>
        </g>
    </g>
</svg>
