<?xml version="1.0" encoding="UTF-8" standalone="no"?>
<!DOCTYPE svg PUBLIC "-//W3C//DTD SVG 1.1//EN" "http://www.w3.org/Graphics/SVG/1.1/DTD/svg11.dtd">
<svg width="100%" height="100%" viewBox="0 0 500 500" version="1.1" xmlns="http://www.w3.org/2000/svg" xmlns:xlink="http://www.w3.org/1999/xlink" xml:space="preserve" xmlns:serif="http://www.serif.com/" style="fill-rule:evenodd;clip-rule:evenodd;">
    <g>
        <g>
            <g>
                <path d="M268.07,244.781L268.07,246.642L235.31,246.642L235.31,244.371L240.539,244.371C246.274,244.371 250.425,243.694 252.997,242.33C255.565,240.97 256.852,238.554 256.852,235.08C256.852,233.871 256.695,232.403 256.393,230.663C256.086,228.929 255.56,227.074 254.81,225.1L240.977,187.934L179.56,187.934L167.102,223.517C165.737,227.449 165.06,230.699 165.06,233.267C165.06,237.35 166.872,240.225 170.497,241.892C174.122,243.548 179.935,244.371 187.935,244.371L193.164,244.371L193.164,246.642L137.852,246.642L137.852,244.371L144.435,244.371C149.268,244.371 153.081,243.09 155.872,240.517C158.664,237.949 161.19,233.345 163.456,226.705L212.872,84.809L224.435,84.809L268.07,197.979M180.247,185.663L240.081,185.663L223.539,141.475C217.633,126.215 212.945,112.611 209.477,100.663C207.961,105.205 206.633,109.215 205.497,112.684C204.372,116.158 203.164,119.824 201.872,123.684C200.591,127.533 198.977,132.179 197.018,137.621L180.247,185.663Z"/>
            </g>
        </g>
    </g>
    <g transform="matrix(1,0,0,1,215.353,347.482)">
        <g>
            <g>
                <path d="M8.604,0L8.604,-2.271L11.563,-2.271C23.948,-2.271 30.146,-7.708 30.146,-18.583L30.146,-144.167C30.146,-154.443 23.948,-159.583 11.563,-159.583L8.604,-159.583L8.604,-161.833L122.854,-161.833L124.208,-122.167L121.938,-122.167L121.5,-129.646C120.885,-140.979 118.24,-148.797 113.563,-153.104C108.88,-157.422 100.797,-159.583 89.313,-159.583L53.042,-159.583L53.042,-80.687L109.938,-80.687L109.938,-78.417L53.042,-78.417L53.042,-18.583C53.042,-7.708 59.234,-2.271 71.625,-2.271L74.583,-2.271L74.583,0L8.604,0Z" style="fill-rule:nonzero;"/>
            </g>
        </g>
    </g>
    <g transform="matrix(0.75,0,0,0.75,267.497,267.572)">
        <path d="M-0.002,2.667L78.109,2.667" style="fill:none;fill-rule:nonzero;stroke:black;stroke-width:5.33px;"/>
    </g>
</svg>
